<?xml version="1.0" standalone="no"?>
<!DOCTYPE svg PUBLIC "-//W3C//DTD SVG 20010904//EN"
 "http://www.w3.org/TR/2001/REC-SVG-20010904/DTD/svg10.dtd">
<svg version="1.0" xmlns="http://www.w3.org/2000/svg"
 width="522.000000pt" height="522.000000pt" viewBox="0 0 522.000000 522.000000"
 preserveAspectRatio="xMidYMid meet">
<metadata>
Created by potrace 1.14, written by Peter Selinger 2001-2017
</metadata>
<g transform="translate(0.000000,522.000000) scale(0.100000,-0.100000)"
fill="#000000" stroke="none">
<path d="M412 5205 c-136 -32 -277 -141 -337 -260 -16 -33 -30 -62 -31 -65 0
-3 -3 -12 -6 -20 -27 -68 -28 -183 -27 -2242 0 -1600 3 -2147 12 -2188 47
-220 267 -408 474 -406 29 1 53 -1 53 -4 0 -6 167 -3 193 4 9 2 17 1 17 -4 0
-4 15 -5 33 -1 17 4 44 4 59 0 16 -4 30 -3 34 2 3 5 10 7 15 3 6 -3 52 -5 102
-5 51 1 99 2 107 1 45 -1 115 2 118 5 2 2 14 0 26 -5 13 -4 29 -5 36 0 7 4 26
4 41 0 17 -5 31 -5 35 1 3 5 10 7 15 3 6 -3 52 -5 102 -5 51 1 99 2 107 1 45
-1 115 2 118 5 2 2 14 0 26 -5 13 -4 29 -5 36 0 7 4 26 4 41 0 17 -5 31 -5 35
1 3 5 10 7 15 3 6 -3 52 -5 102 -5 51 1 99 2 107 1 45 -1 115 2 118 5 2 2 14
0 26 -5 13 -4 29 -5 36 0 7 4 26 4 41 0 17 -5 31 -5 35 1 3 5 10 7 15 3 6 -3
52 -5 102 -5 51 1 99 2 107 1 45 -1 115 2 118 5 2 2 14 0 26 -5 13 -4 29 -5
36 0 7 4 26 4 41 0 17 -5 31 -5 35 1 3 5 10 7 15 3 6 -3 52 -5 102 -5 51 1 99
2 107 1 45 -1 115 2 118 5 2 2 14 0 26 -5 13 -4 29 -5 36 0 7 4 26 4 41 0 17
-5 31 -5 35 1 3 5 10 7 15 3 6 -3 52 -5 102 -5 51 1 99 2 107 1 45 -1 115 2
118 5 2 2 14 0 26 -5 13 -4 29 -5 36 0 7 4 26 4 41 0 17 -5 31 -5 35 1 3 5 10
7 15 3 6 -3 52 -5 102 -5 51 1 99 2 107 1 45 -1 115 2 118 5 2 2 14 0 26 -5
13 -4 29 -5 36 0 7 4 26 4 41 0 17 -5 31 -5 35 1 3 5 10 7 15 3 6 -3 52 -5
102 -5 92 2 106 2 130 0 10 -1 81 0 152 1 46 1 150 8 150 9 0 2 10 4 23 7 27
5 124 45 132 54 3 3 22 16 42 29 86 52 181 195 207 311 13 54 10 4349 -2 4395
-5 17 -24 64 -44 105 -62 128 -176 223 -323 269 -62 19 -106 20 -2214 19
-1692 0 -2162 -3 -2204 -13z"/>
</g>
</svg>
